# xmcd
#
# Track frame offsets: 
#        150
#        11866
#        27707
#        55374
#        74042
#        98152
#        120123
#        140092
#        160057
#        186412
#        209470
#        228626
#        246446
#        264246
#
# Disc length: 3768 seconds
#
# Revision: 0
# Processed by: cddbd v1.5.2PL0 Copyright (c) Steve Scherf et al.
# Submitted via: ExactAudioCopy v1.0b4
#
DISCID=d50eb60e
DTITLE=Shorty - Git Shorty
DYEAR=2008
DGENRE=Blues
TTITLE0=(They Call Me) Guitar Shorty
TTITLE1=Take A Taste
TTITLE2=I Want To Ta-Ta You Baby
TTITLE3=Walking On Air
TTITLE4=Somebody Stole My Monkey
TTITLE5=I Know The Real You
TTITLE6=Been Down That Road Before
TTITLE7=Let Me Love You Tonight
TTITLE8=Smoothe
TTITLE9=She's A Bad Mama Jama
TTITLE10=I Want To Be Your Man
TTITLE11=What Can I Do (To Win Your Love)
TTITLE12=Don't Hoe In The Garden
TTITLE13=She's Mine
EXTD=
EXTT0=
EXTT1=
EXTT2=
EXTT3=
EXTT4=
EXTT5=
EXTT6=
EXTT7=
EXTT8=
EXTT9=
EXTT10=
EXTT11=
EXTT12=
EXTT13=
PLAYORDER=
